<?xml version="1.0" encoding="UTF-8"?>
<svg version="1.1" xmlns="http://www.w3.org/2000/svg" width="484" height="247">
<path d="M0 0 C159.72 0 319.44 0 484 0 C484 81.51 484 163.02 484 247 C324.28 247 164.56 247 0 247 C0 165.49 0 83.98 0 0 Z " fill="#383538" transform="translate(0,0)"/>
<path d="M0 0 C0.74663406 0.00328812 1.49326813 0.00657623 2.26252747 0.00996399 C3.83518231 0.02036217 5.40779944 0.04027393 6.98022461 0.0690918 C9.39653418 0.11331791 11.81185072 0.13055003 14.22851562 0.14257812 C15.75652487 0.1559962 17.28452182 0.17091752 18.8125 0.1875 C19.53849899 0.19488693 20.26449799 0.20227386 21.01249695 0.20988464 C26.08871221 0.30746221 26.08871221 0.30746221 27.20703125 1.42578125 C27.29354736 2.84148248 27.31408029 4.26137625 27.3046875 5.6796875 C27.29985352 6.96069336 27.29985352 6.96069336 27.29492188 8.26757812 C27.28235352 9.61432617 27.28235352 9.61432617 27.26953125 10.98828125 C27.26501953 11.88998047 27.26050781 12.79167969 27.25585938 13.72070312 C27.2440335 15.95579439 27.22755345 18.19075562 27.20703125 20.42578125 C25.88703125 20.75578125 24.56703125 21.08578125 23.20703125 21.42578125 C23.20703125 15.81578125 23.20703125 10.20578125 23.20703125 4.42578125 C20.89703125 4.09578125 18.58703125 3.76578125 16.20703125 3.42578125 C16.20703125 4.08578125 16.20703125 4.74578125 16.20703125 5.42578125 C17.01140625 5.40515625 17.81578125 5.38453125 18.64453125 5.36328125 C21.20703125 5.42578125 21.20703125 5.42578125 22.20703125 6.42578125 C22.28028293 9.28845692 22.2994133 12.12650025 22.26953125 14.98828125 C22.26501953 15.79458984 22.26050781 16.60089844 22.25585938 17.43164062 C22.24403643 19.42971881 22.22610039 21.42775908 22.20703125 23.42578125 C20.88703125 23.75578125 19.56703125 24.08578125 18.20703125 24.42578125 C18.20703125 19.47578125 18.20703125 14.52578125 18.20703125 9.42578125 C15.89703125 9.09578125 13.58703125 8.76578125 11.20703125 8.42578125 C11.20703125 9.08578125 11.20703125 9.74578125 11.20703125 10.42578125 C12.01140625 10.40515625 12.81578125 10.38453125 13.64453125 10.36328125 C16.20703125 10.42578125 16.20703125 10.42578125 17.20703125 11.42578125 C17.30684339 14.10309505 17.34583 16.748823 17.33203125 19.42578125 C17.33783203 20.55113281 17.33783203 20.55113281 17.34375 21.69921875 C17.33364178 27.29917072 17.33364178 27.29917072 16.20703125 28.42578125 C13.67653723 28.49891692 11.17398288 28.51825652 8.64453125 28.48828125 C7.5781543 28.48151367 7.5781543 28.48151367 6.49023438 28.47460938 C4.72913112 28.46278989 2.96807089 28.44485388 1.20703125 28.42578125 C1.22797852 29.30838623 1.24892578 30.19099121 1.27050781 31.1003418 C1.3388722 34.38983694 1.38892074 37.67857219 1.42675781 40.96850586 C1.44681546 42.38952582 1.47406903 43.81046384 1.50878906 45.23120117 C1.55757136 47.2793402 1.58005664 49.326384 1.59765625 51.375 C1.61860352 52.60565186 1.63955078 53.83630371 1.66113281 55.10424805 C1.1291016 58.99579892 -0.10898324 60.62802819 -2.79296875 63.42578125 C-2.05046875 62.66265625 -1.30796875 61.89953125 -0.54296875 61.11328125 C5.33311554 55.37074433 9.34012457 54.13472915 17.4765625 54.19921875 C22.24291629 54.59471019 25.32927159 56.84060814 29.20703125 59.42578125 C29.20703125 60.08578125 29.20703125 60.74578125 29.20703125 61.42578125 C29.86703125 61.42578125 30.52703125 61.42578125 31.20703125 61.42578125 C31.53703125 61.42578125 31.86703125 61.42578125 32.20703125 61.42578125 C30.88703125 59.77578125 29.56703125 58.12578125 28.20703125 56.42578125 C35.88629939 51.51958216 44.31425524 51.55059752 53.20703125 52.42578125 C56.57443566 53.30880985 59.28132203 54.55982893 62.20703125 56.42578125 C63.13515625 56.98265625 64.06328125 57.53953125 65.01953125 58.11328125 C69.92238092 63.29629375 71.46558997 68.80320524 71.70703125 75.86328125 C71.37434237 85.0712509 68.46144638 92.0157576 62.1015625 98.68359375 C49.09866713 110.64089547 31.23998046 112.0999641 14.41845703 111.55322266 C4.48623893 110.98084268 -6.98425681 106.09851525 -14.73046875 99.8671875 C-17.68117252 97.80504794 -20.94827858 96.90482347 -24.35546875 95.86328125 C-28.13808294 94.69186765 -31.45922653 93.64827607 -34.79296875 91.42578125 C-37.8047159 84.92434432 -38.31310812 78.0510192 -38.23046875 70.98828125 C-38.22217041 70.06740723 -38.21387207 69.1465332 -38.20532227 68.19775391 C-37.87348744 54.84642096 -32.04693296 45.82085334 -24.48046875 35.16015625 C-17.95881872 25.96044985 -13.67286598 18.5272985 -12.48046875 7.125 C-10.76053854 0.37231946 -6.2179716 -0.15121657 0 0 Z " fill="#ACD1A7" transform="translate(229.79296875,43.57421875)"/>
<path d="M0 0 C3.63 0 7.26 0 11 0 C13.35862583 7.94605012 15.56933303 15.8301386 17 24 C17.33 24 17.66 24 18 24 C18.176521 23.30849854 18.35304199 22.61699707 18.53491211 21.90454102 C19.33219683 18.78959866 20.13477494 15.67604459 20.9375 12.5625 C21.21529297 11.47388672 21.49308594 10.38527344 21.77929688 9.26367188 C22.04677734 8.22919922 22.31425781 7.19472656 22.58984375 6.12890625 C22.83597412 5.17056885 23.08210449 4.21223145 23.33569336 3.22485352 C24 1 24 1 25 0 C26.51928038 -0.07179964 28.04167482 -0.08392007 29.5625 -0.0625 C30.38878906 -0.05347656 31.21507812 -0.04445312 32.06640625 -0.03515625 C32.70449219 -0.02355469 33.34257812 -0.01195312 34 0 C36.21652516 4.91985724 37.35544183 10.09033486 38.625 15.3125 C38.96917969 16.70952148 38.96917969 16.70952148 39.3203125 18.13476562 C39.88342457 20.42240843 40.44321324 22.710811 41 25 C43.78368458 14.85956916 43.78368458 14.85956916 46.1875 4.625 C47 1 47 1 48 0 C49.47354348 -0.09304018 50.95150591 -0.11746265 52.42797852 -0.11352539 C53.36887833 -0.11344986 54.30977814 -0.11337433 55.27919006 -0.11329651 C56.30209641 -0.10813522 57.32500275 -0.10297394 58.37890625 -0.09765625 C59.42070541 -0.0962413 60.46250458 -0.09482635 61.53587341 -0.09336853 C64.87811094 -0.0877508 68.22028257 -0.0751953 71.5625 -0.0625 C73.82226466 -0.05748728 76.08203037 -0.05292398 78.34179688 -0.04882812 C83.89455682 -0.03777561 89.44726722 -0.0204991 95 0 C95 2.97 95 5.94 95 9 C91.04 9 87.08 9 83 9 C83 19.89 83 30.78 83 42 C79.37 42 75.74 42 72 42 C72 31.11 72 20.22 72 9 C67.71 9 63.42 9 59 9 C58.505 7.515 58.505 7.515 58 6 C57.69707031 7.258125 57.39414062 8.51625 57.08203125 9.8125 C54.4333313 20.68016386 51.48824945 31.37197188 48 42 C44.04 42 40.08 42 36 42 C35.36771484 39.63521484 35.36771484 39.63521484 34.72265625 37.22265625 C34.16944822 35.16922304 33.61605316 33.1158402 33.0625 31.0625 C32.78470703 30.02158203 32.50691406 28.98066406 32.22070312 27.90820312 C31.95322266 26.91884766 31.68574219 25.92949219 31.41015625 24.91015625 C31.16402588 23.99371338 30.91789551 23.07727051 30.66430664 22.13305664 C30.1932065 20.03825076 30.1932065 20.03825076 29 19 C27.02 26.59 25.04 34.18 23 42 C18.71 42 14.42 42 10 42 C9.61328125 40.41832031 9.2265625 38.83664063 8.828125 37.20703125 C5.17436669 22.22609956 5.17436669 22.22609956 0.6640625 7.48828125 C0 5 0 5 0 0 Z " fill="#AACEA5" transform="translate(309,177)"/>
<path d="M0 0 C1.22783203 -0.02835938 2.45566406 -0.05671875 3.72070312 -0.0859375 C13.76378944 -0.10780595 13.76378944 -0.10780595 16.84765625 2.90625 C20.66465515 8.67956952 19.82425291 14.47018835 19.875 21.25 C19.90400391 22.52617187 19.93300781 23.80234375 19.96289062 25.1171875 C20.03438196 35.65391071 20.03438196 35.65391071 17.79296875 39.265625 C13.29727955 43.76918756 9.46052017 43.77868917 3.328125 43.82226562 C2.29171875 43.81904297 1.2553125 43.81582031 0.1875 43.8125 C-1.35550781 43.83666992 -1.35550781 43.83666992 -2.9296875 43.86132812 C-8.43540268 43.86487562 -12.8063192 43.8413894 -17.4375 40.5 C-19.68342662 37.10740253 -19.69505678 34.16689438 -19.703125 30.16015625 C-19.70570313 28.93232422 -19.70828125 27.70449219 -19.7109375 26.43945312 C-19.70320313 25.16005859 -19.69546875 23.88066406 -19.6875 22.5625 C-19.69523437 21.28697266 -19.70296875 20.01144531 -19.7109375 18.69726562 C-19.70835937 17.46814453 -19.70578125 16.23902344 -19.703125 14.97265625 C-19.70086914 13.85125244 -19.69861328 12.72984863 -19.69628906 11.57446289 C-19.3486647 7.44461989 -18.62283279 4.71306861 -15.69506836 1.71679688 C-10.96899132 -0.83049067 -5.24209179 -0.01097246 0 0 Z " fill="#ABD0A6" transform="translate(287.4375,176.5)"/>
<path d="M0 0 C6.991875 -0.12375 6.991875 -0.12375 14.125 -0.25 C15.58437988 -0.28641602 17.04375977 -0.32283203 18.54736328 -0.36035156 C19.70993652 -0.3703418 20.87250977 -0.38033203 22.0703125 -0.390625 C23.84559326 -0.4220459 23.84559326 -0.4220459 25.65673828 -0.45410156 C29.74304019 0.10092411 31.8391941 1.38673076 35 4 C38.26185359 8.59536745 37.32854299 14.47813649 37.3125 19.875 C37.32861328 20.95136719 37.34472656 22.02773437 37.36132812 23.13671875 C37.36767811 33.43639263 37.36767811 33.43639263 34 38 C29.99977357 40.99056034 27.10889076 41.35826728 22.16796875 41.29296875 C21.00289795 41.28547607 19.83782715 41.2779834 18.63745117 41.27026367 C17.16896729 41.24295166 15.7004834 41.21563965 14.1875 41.1875 C9.505625 41.125625 4.82375 41.06375 0 41 C0 27.47 0 13.94 0 0 Z " fill="#ACD1A7" transform="translate(43,178)"/>
<path d="M0 0 C6.991875 -0.12375 6.991875 -0.12375 14.125 -0.25 C15.58437988 -0.28641602 17.04375977 -0.32283203 18.54736328 -0.36035156 C19.70993652 -0.3703418 20.87250977 -0.38033203 22.0703125 -0.390625 C23.84559326 -0.4220459 23.84559326 -0.4220459 25.65673828 -0.45410156 C29.71857416 0.09760099 31.82687525 1.450219 35 4 C37.4680704 7.70210559 37.33179675 10.59112254 37.3125 14.875 C37.32861328 15.58269531 37.34472656 16.29039062 37.36132812 17.01953125 C37.36548897 21.48827444 36.9053376 24.52992465 34 28 C33.01 28 32.02 28 31 28 C31.433125 28.84304687 31.86625 29.68609375 32.3125 30.5546875 C32.869375 31.65039062 33.42625 32.74609375 34 33.875 C34.556875 34.96554688 35.11375 36.05609375 35.6875 37.1796875 C37 40 37 40 37 42 C33.17236315 42.61296675 29.79800059 42.87525939 26 42 C22.93994942 38.80690375 20 34.56514213 20 30 C17.03 30 14.06 30 11 30 C11 33.96 11 37.92 11 42 C7.37 42 3.74 42 0 42 C0 28.14 0 14.28 0 0 Z " fill="#AACFA5" transform="translate(226,177)"/>
<path d="M0 0 C1.11181641 0.00644531 2.22363281 0.01289063 3.36914062 0.01953125 C5.09487305 0.04466797 5.09487305 0.04466797 6.85546875 0.0703125 C8.02529297 0.07933594 9.19511719 0.08835938 10.40039062 0.09765625 C13.28145928 0.12117518 16.16210864 0.15404398 19.04296875 0.1953125 C19.04296875 3.1653125 19.04296875 6.1353125 19.04296875 9.1953125 C11.78296875 9.5253125 4.52296875 9.8553125 -2.95703125 10.1953125 C-2.95703125 17.7853125 -2.95703125 25.3753125 -2.95703125 33.1953125 C3.97296875 33.6903125 3.97296875 33.6903125 11.04296875 34.1953125 C11.04296875 31.5553125 11.04296875 28.9153125 11.04296875 26.1953125 C8.40296875 26.1953125 5.76296875 26.1953125 3.04296875 26.1953125 C3.04296875 23.5553125 3.04296875 20.9153125 3.04296875 18.1953125 C9.31296875 18.1953125 15.58296875 18.1953125 22.04296875 18.1953125 C22.04296875 26.1153125 22.04296875 34.0353125 22.04296875 42.1953125 C14.70356161 42.87020051 7.4109929 43.33657118 0.04296875 43.4453125 C-1.03295532 43.4772168 -1.03295532 43.4772168 -2.13061523 43.50976562 C-6.59735632 43.53917627 -9.46752956 43.04336167 -12.95703125 40.1953125 C-16.16036322 35.3016848 -15.32901106 29.41079825 -15.32763672 23.77807617 C-15.33201082 21.76720508 -15.36835814 19.75853015 -15.40625 17.74804688 C-15.41011719 16.47380859 -15.41398438 15.19957031 -15.41796875 13.88671875 C-15.42618652 12.72342041 -15.4344043 11.56012207 -15.44287109 10.36157227 C-14.84804389 6.48503258 -13.7612073 4.90505671 -10.95703125 2.1953125 C-7.26790731 0.17782877 -4.16337899 -0.04270132 0 0 Z " fill="#A7CBA3" transform="translate(197.95703125,176.8046875)"/>
<path d="M0 0 C3.63 0 7.26 0 11 0 C11 5.61 11 11.22 11 17 C15.95 17 20.9 17 26 17 C26 11.39 26 5.78 26 0 C29.63 0 33.26 0 37 0 C37 13.86 37 27.72 37 42 C33.37 42 29.74 42 26 42 C26 36.39 26 30.78 26 25 C21.05 25 16.1 25 11 25 C11 30.61 11 36.22 11 42 C7.37 42 3.74 42 0 42 C0 28.14 0 14.28 0 0 Z " fill="#ABCFA6" transform="translate(408,177)"/>
<path d="M0 0 C10.89 0 21.78 0 33 0 C33 2.64 33 5.28 33 8 C25.74 8 18.48 8 11 8 C11 10.64 11 13.28 11 16 C16.61 16 22.22 16 28 16 C28 18.64 28 21.28 28 24 C22.39 24 16.78 24 11 24 C11 26.97 11 29.94 11 33 C18.26 33 25.52 33 33 33 C33 35.64 33 38.28 33 41 C22.11 41 11.22 41 0 41 C0 27.47 0 13.94 0 0 Z " fill="#ADD3A8" transform="translate(86,178)"/>
<path d="M0 0 C1.51400391 0.01740234 1.51400391 0.01740234 3.05859375 0.03515625 C4.07050781 0.04417969 5.08242187 0.05320313 6.125 0.0625 C6.90746094 0.07410156 7.68992188 0.08570313 8.49609375 0.09765625 C6.00913065 9.18469003 2.64673353 17.92450383 -0.69140625 26.72265625 C-1.25616771 28.21863363 -1.8206232 29.71472657 -2.38476562 31.2109375 C-3.75429095 34.84118464 -5.12793923 38.46984606 -6.50390625 42.09765625 C-10.79390625 42.09765625 -15.08390625 42.09765625 -19.50390625 42.09765625 C-21.64221871 36.42013336 -23.77840796 30.74181807 -25.91259766 25.06274414 C-26.63954698 23.12925408 -27.36708516 21.19598531 -28.09521484 19.26293945 C-29.1392304 16.49097161 -30.18115404 13.71822549 -31.22265625 10.9453125 C-31.71481628 9.64062767 -31.71481628 9.64062767 -32.21691895 8.30958557 C-32.51723022 7.50883102 -32.8175415 6.70807648 -33.12695312 5.88305664 C-33.39342651 5.17468155 -33.6598999 4.46630646 -33.93444824 3.73646545 C-34.50390625 2.09765625 -34.50390625 2.09765625 -34.50390625 1.09765625 C-30.54390625 1.09765625 -26.58390625 1.09765625 -22.50390625 1.09765625 C-19.53390625 9.34765625 -16.56390625 17.59765625 -13.50390625 26.09765625 C-11.16002676 23.75377676 -10.64582131 22.03530338 -9.59375 18.90625 C-9.24376953 17.87951172 -8.89378906 16.85277344 -8.53320312 15.79492188 C-8.17291016 14.71919922 -7.81261719 13.64347656 -7.44140625 12.53515625 C-6.72388722 10.40799805 -6.00396556 8.28164826 -5.28125 6.15625 C-4.96406006 5.21064209 -4.64687012 4.26503418 -4.32006836 3.29077148 C-3.14100593 0.12250413 -3.14100593 0.12250413 0 0 Z " fill="#ABD0A6" transform="translate(154.50390625,176.90234375)"/>
<path d="M0 0 C1.26714844 -0.01417969 2.53429687 -0.02835938 3.83984375 -0.04296875 C7.0625 0.1875 7.0625 0.1875 9.0625 2.1875 C9.30541992 4.51000977 9.30541992 4.51000977 9.29296875 7.37890625 C9.29103516 8.40564453 9.28910156 9.43238281 9.28710938 10.49023438 C9.26874023 12.10381836 9.26874023 12.10381836 9.25 13.75 C9.24935547 14.82958984 9.24871094 15.90917969 9.24804688 17.02148438 C9.20264598 25.04735402 9.20264598 25.04735402 8.0625 26.1875 C5.55113896 26.28725032 3.07346585 26.32632183 0.5625 26.3125 C-0.14003906 26.31636719 -0.84257812 26.32023437 -1.56640625 26.32421875 C-6.81088622 26.31411378 -6.81088622 26.31411378 -7.9375 25.1875 C-8.03696453 23.41890807 -8.06830217 21.64638549 -8.0703125 19.875 C-8.07160156 18.79992187 -8.07289063 17.72484375 -8.07421875 16.6171875 C-8.06841797 14.91949219 -8.06841797 14.91949219 -8.0625 13.1875 C-8.06636719 12.05570313 -8.07023437 10.92390625 -8.07421875 9.7578125 C-8.07292969 8.68273437 -8.07164062 7.60765625 -8.0703125 6.5 C-8.06918457 5.50613281 -8.06805664 4.51226562 -8.06689453 3.48828125 C-7.79437072 -1.35750057 -4.06867947 0.0206532 0 0 Z " fill="#393739" transform="translate(286.9375,184.8125)"/>
<path d="M0 0 C9.9609375 -0.1953125 9.9609375 -0.1953125 13 0 C15.93872655 2.93872655 15.29169002 5.5236662 15.32226562 9.54296875 C15.31904297 10.51878906 15.31582031 11.49460938 15.3125 12.5 C15.32861328 13.47582031 15.34472656 14.45164063 15.36132812 15.45703125 C15.36197266 16.38902344 15.36261719 17.32101563 15.36328125 18.28125 C15.36626221 19.13783203 15.36924316 19.99441406 15.37231445 20.87695312 C15.1880188 21.92786133 15.1880188 21.92786133 15 23 C12 25 12 25 0 25 C0 16.75 0 8.5 0 0 Z " fill="#393739" transform="translate(54,186)"/>
<path d="M0 0 C3.48872415 1.16290805 4.09976864 2.13967609 6.1875 5.0625 C6.71730469 5.79597656 7.24710938 6.52945313 7.79296875 7.28515625 C8.19128906 7.85105469 8.58960938 8.41695312 9 9 C7.68 9 6.36 9 5 9 C5 13.95 5 18.9 5 24 C2.36 24 -0.28 24 -3 24 C-3 19.05 -3 14.1 -3 9 C-4.32 8.67 -5.64 8.34 -7 8 C-4.69 5.36 -2.38 2.72 0 0 Z " fill="#3A383A" transform="translate(246,112)"/>
<path d="M0 0 C2.31243792 -0.02685412 4.6249627 -0.04632841 6.9375 -0.0625 C8.22527344 -0.07410156 9.51304687 -0.08570313 10.83984375 -0.09765625 C14 0 14 0 15 1 C15.09823937 2.66429051 15.12973631 4.33281931 15.125 6 C15.12757813 6.9075 15.13015625 7.815 15.1328125 8.75 C15 11 15 11 14 12 C11.64686445 12.07271741 9.29166332 12.08370868 6.9375 12.0625 C5.64714844 12.05347656 4.35679687 12.04445312 3.02734375 12.03515625 C2.02832031 12.02355469 1.02929688 12.01195312 0 12 C0 8.04 0 4.08 0 0 Z " fill="#383538" transform="translate(237,186)"/>
<path d="M0 0 C5.875 4.625 5.875 4.625 7 8 C6.01 7.67 5.02 7.34 4 7 C4 6.34 4 5.68 4 5 C3.34 5 2.68 5 2 5 C2 4.34 2 3.68 2 3 C1.01 2.67 0.02 2.34 -1 2 C-0.67 1.34 -0.34 0.68 0 0 Z " fill="#5E685C" transform="translate(257,100)"/>
</svg>
